<svg width="157" height="29" viewBox="0 0 157 29" fill="none" xmlns="http://www.w3.org/2000/svg">
<g clip-path="url(#clip0_86_3030)">
<rect y="2.5" width="24" height="24" rx="4" fill="#004D40"/>
<circle cx="-2" cy="-1.5" r="14" fill="url(#paint0_linear_86_3030)"/>
<circle cx="33.5" cy="40" r="35.5" fill="url(#paint1_linear_86_3030)"/>
<path fill-rule="evenodd" clip-rule="evenodd" d="M10 5.5C10 4.94772 10.4477 4.5 11 4.5H13H19V7.5H13V10.5H19V13.5H13V15.5C13 16.0523 13.4477 16.5 14 16.5H19V19.5H12H11C10.4477 19.5 10 19.0523 10 18.5V17.5V12.5V11.5V6.5V5.5ZM5 9.5H7C7.55228 9.5 8 9.94772 8 10.5V20.5C8 21.0523 8.44772 21.5 9 21.5H14V24.5H7H6C5.44772 24.5 5 24.0523 5 23.5V22.5V9.5Z" fill="white"/>
<g clip-path="url(#clip1_86_3030)">
<rect y="2" width="24" height="24" rx="4" fill="#004D40"/>
<circle cx="-2" cy="-2" r="14" fill="#26A69A"/>
<circle cx="33.5" cy="39.5" r="35.5" fill="url(#paint2_linear_86_3030)"/>
<path fill-rule="evenodd" clip-rule="evenodd" d="M10 5C10 4.44772 10.4477 4 11 4H13H19V7H13V10H19V13H13V15C13 15.5523 13.4477 16 14 16H19V19H12H11C10.4477 19 10 18.5523 10 18V17V12V11V6V5ZM5 9H7C7.55228 9 8 9.44772 8 10V20C8 20.5523 8.44772 21 9 21H14V24H7H6C5.44772 24 5 23.5523 5 23V22V9Z" fill="white"/>
<path fill-rule="evenodd" clip-rule="evenodd" d="M10 5C10 4.44772 10.4477 4 11 4H13H19V7H13V10H19V13H13V15C13 15.5523 13.4477 16 14 16H19V19H12H11C10.4477 19 10 18.5523 10 18V17V12V11V6V5ZM5 9H7C7.55228 9 8 9.44772 8 10V20C8 20.5523 8.44772 21 9 21H14V24H7H6C5.44772 24 5 23.5523 5 23V22V9Z" fill="white"/>
</g>
</g>
<path d="M45.1709 21H35.9912V5.04541H38.2007V19.1445H45.1709V21ZM56.7188 21L56.6699 19.3521C56.0026 20.0112 55.3231 20.4873 54.6313 20.7803C53.9478 21.0732 53.2275 21.2197 52.4707 21.2197C51.7708 21.2197 51.1727 21.1302 50.6763 20.9512C50.1799 20.7721 49.7689 20.528 49.4434 20.2188C49.126 19.9014 48.89 19.5311 48.7354 19.1079C48.5889 18.6847 48.5156 18.2249 48.5156 17.7285C48.5156 16.4997 48.9714 15.5394 49.8828 14.8477C50.8024 14.1478 52.1574 13.7979 53.9478 13.7979H56.4868V12.7236C56.4868 11.9993 56.2549 11.4215 55.791 10.9902C55.3271 10.5508 54.6191 10.3311 53.667 10.3311C52.9753 10.3311 52.2917 10.4084 51.6162 10.563C50.9489 10.7176 50.2572 10.9373 49.541 11.2222V9.30566C49.8096 9.20801 50.1066 9.11442 50.4321 9.0249C50.7658 8.92725 51.1157 8.8418 51.4819 8.76855C51.8481 8.69531 52.2306 8.63835 52.6294 8.59766C53.0282 8.54883 53.431 8.52441 53.8379 8.52441C54.5785 8.52441 55.2458 8.60579 55.8398 8.76855C56.4339 8.93132 56.9344 9.17952 57.3413 9.51318C57.7563 9.84684 58.0737 10.266 58.2935 10.7705C58.5132 11.2751 58.623 11.8691 58.623 12.5527V21H56.7188ZM56.4868 15.4214H53.7891C53.2601 15.4214 52.8044 15.4743 52.4219 15.5801C52.0394 15.6859 51.7261 15.8364 51.4819 16.0317C51.2378 16.2271 51.0547 16.4631 50.9326 16.7397C50.8187 17.0083 50.7617 17.3135 50.7617 17.6553C50.7617 17.8913 50.7983 18.1191 50.8716 18.3389C50.9448 18.5505 51.0628 18.7417 51.2256 18.9126C51.3883 19.0754 51.5999 19.2056 51.8604 19.3032C52.1208 19.4009 52.4382 19.4497 52.8125 19.4497C53.3008 19.4497 53.8582 19.3032 54.4849 19.0103C55.1196 18.7091 55.7869 18.2371 56.4868 17.5942V15.4214ZM72.5146 21H62.6392V19.4741L69.5605 10.5264H62.8101V8.74414H72.1118V10.4043L65.3125 19.2056H72.5146V21ZM87.2363 8.74414L83.0615 19.7061C82.6302 20.821 82.1826 21.7812 81.7188 22.5869C81.263 23.3926 80.7625 24.0518 80.2173 24.5645C79.672 25.0853 79.0739 25.4678 78.4229 25.7119C77.7718 25.9561 77.0435 26.0781 76.2378 26.0781C76.0262 26.0781 75.835 26.0741 75.6641 26.0659C75.4932 26.0578 75.306 26.0456 75.1025 26.0293V24.1006C75.2816 24.125 75.4769 24.1453 75.6885 24.1616C75.9001 24.186 76.1239 24.1982 76.3599 24.1982C76.7505 24.1982 77.1126 24.1413 77.4463 24.0273C77.7881 23.9134 78.1095 23.7262 78.4106 23.4658C78.7118 23.2135 79.0007 22.884 79.2773 22.4771C79.554 22.0701 79.8226 21.5778 80.083 21L75.188 8.74414H77.605L80.7056 16.8496L81.3281 18.7539L82.0361 16.8008L84.9048 8.74414H87.2363ZM100.432 14.2251C100.432 14.5262 100.428 14.7785 100.42 14.9819C100.412 15.1854 100.4 15.3766 100.383 15.5557H91.7773C91.7773 16.8089 92.1273 17.7733 92.8271 18.4487C93.527 19.116 94.5361 19.4497 95.8545 19.4497C96.2126 19.4497 96.5706 19.4375 96.9287 19.4131C97.2868 19.3805 97.6326 19.3398 97.9663 19.291C98.3 19.2422 98.6174 19.1893 98.9185 19.1323C99.2277 19.0672 99.5125 18.998 99.7729 18.9248V20.6704C99.1951 20.8332 98.54 20.9634 97.8076 21.061C97.0833 21.1668 96.3306 21.2197 95.5493 21.2197C94.4995 21.2197 93.5962 21.0773 92.8394 20.7925C92.0825 20.5076 91.46 20.0967 90.9717 19.5596C90.4915 19.0143 90.1335 18.3511 89.8975 17.5698C89.6696 16.7804 89.5557 15.8893 89.5557 14.8965C89.5557 14.0339 89.6777 13.2201 89.9219 12.4551C90.1742 11.682 90.5363 11.0065 91.0083 10.4287C91.4884 9.84277 92.0744 9.37891 92.7661 9.03711C93.4578 8.69531 94.2432 8.52441 95.1221 8.52441C95.9766 8.52441 96.7334 8.65869 97.3926 8.92725C98.0518 9.1958 98.6051 9.57829 99.0527 10.0747C99.5085 10.563 99.8503 11.1611 100.078 11.8691C100.314 12.569 100.432 13.3543 100.432 14.2251ZM98.2227 13.9199C98.2471 13.3747 98.1942 12.8783 98.064 12.4307C97.9338 11.9749 97.7303 11.5843 97.4536 11.2588C97.1851 10.9333 96.8473 10.681 96.4404 10.502C96.0335 10.3148 95.5615 10.2212 95.0244 10.2212C94.5605 10.2212 94.1374 10.3107 93.7549 10.4897C93.3724 10.6688 93.0428 10.9211 92.7661 11.2466C92.4894 11.5721 92.2656 11.9627 92.0947 12.4185C91.9238 12.8742 91.818 13.3747 91.7773 13.9199H98.2227ZM111.699 21L111.65 19.3521C110.983 20.0112 110.304 20.4873 109.612 20.7803C108.928 21.0732 108.208 21.2197 107.451 21.2197C106.751 21.2197 106.153 21.1302 105.657 20.9512C105.16 20.7721 104.749 20.528 104.424 20.2188C104.106 19.9014 103.87 19.5311 103.716 19.1079C103.569 18.6847 103.496 18.2249 103.496 17.7285C103.496 16.4997 103.952 15.5394 104.863 14.8477C105.783 14.1478 107.138 13.7979 108.928 13.7979H111.467V12.7236C111.467 11.9993 111.235 11.4215 110.771 10.9902C110.308 10.5508 109.6 10.3311 108.647 10.3311C107.956 10.3311 107.272 10.4084 106.597 10.563C105.929 10.7176 105.238 10.9373 104.521 11.2222V9.30566C104.79 9.20801 105.087 9.11442 105.413 9.0249C105.746 8.92725 106.096 8.8418 106.462 8.76855C106.829 8.69531 107.211 8.63835 107.61 8.59766C108.009 8.54883 108.411 8.52441 108.818 8.52441C109.559 8.52441 110.226 8.60579 110.82 8.76855C111.414 8.93132 111.915 9.17952 112.322 9.51318C112.737 9.84684 113.054 10.266 113.274 10.7705C113.494 11.2751 113.604 11.8691 113.604 12.5527V21H111.699ZM111.467 15.4214H108.77C108.241 15.4214 107.785 15.4743 107.402 15.5801C107.02 15.6859 106.707 15.8364 106.462 16.0317C106.218 16.2271 106.035 16.4631 105.913 16.7397C105.799 17.0083 105.742 17.3135 105.742 17.6553C105.742 17.8913 105.779 18.1191 105.852 18.3389C105.925 18.5505 106.043 18.7417 106.206 18.9126C106.369 19.0754 106.58 19.2056 106.841 19.3032C107.101 19.4009 107.419 19.4497 107.793 19.4497C108.281 19.4497 108.839 19.3032 109.465 19.0103C110.1 18.7091 110.767 18.2371 111.467 17.5942V15.4214ZM118.071 8.74414H120.012L120.073 11.0024C120.798 10.1317 121.51 9.50098 122.209 9.11035C122.917 8.71973 123.63 8.52441 124.346 8.52441C125.615 8.52441 126.576 8.93538 127.227 9.75732C127.886 10.5793 128.191 11.8 128.142 13.4194H125.994C126.018 12.3452 125.859 11.568 125.518 11.0879C125.184 10.5996 124.692 10.3555 124.041 10.3555C123.756 10.3555 123.467 10.4084 123.174 10.5142C122.889 10.6118 122.592 10.7746 122.283 11.0024C121.982 11.2222 121.66 11.507 121.318 11.8569C120.977 12.2069 120.61 12.63 120.22 13.1265V21H118.071V8.74414ZM141.191 20.8291C140.711 20.9512 140.215 21.0366 139.702 21.0854C139.189 21.1424 138.669 21.1709 138.14 21.1709C136.602 21.1709 135.454 20.825 134.697 20.1333C133.94 19.4334 133.562 18.3633 133.562 16.9229V10.5264H130.132V8.74414H133.562V5.375L135.686 4.82568V8.74414H141.191V10.5264H135.686V16.752C135.686 17.6309 135.918 18.29 136.382 18.7295C136.854 19.1608 137.546 19.3765 138.457 19.3765C138.848 19.3765 139.275 19.348 139.739 19.291C140.203 19.2259 140.687 19.1283 141.191 18.998V20.8291ZM154.912 21H152.788V13.1753C152.788 12.2313 152.609 11.5273 152.251 11.0635C151.901 10.5915 151.396 10.3555 150.737 10.3555C150.452 10.3555 150.184 10.3962 149.932 10.4775C149.688 10.5508 149.431 10.6851 149.163 10.8804C148.894 11.0675 148.601 11.3239 148.284 11.6494C147.966 11.9749 147.6 12.3818 147.185 12.8701V21H145.061V3.75146H147.185V8.74414L147.112 10.6729C147.445 10.2741 147.771 9.94043 148.088 9.67188C148.414 9.39518 148.735 9.17139 149.053 9.00049C149.378 8.82959 149.708 8.70752 150.042 8.63428C150.375 8.56104 150.721 8.52441 151.079 8.52441C152.3 8.52441 153.244 8.89876 153.911 9.64746C154.578 10.388 154.912 11.507 154.912 13.0044V21Z" fill="white"/>
<defs>
<linearGradient id="paint0_linear_86_3030" x1="10" y1="-6" x2="-2" y2="10.5" gradientUnits="userSpaceOnUse">
<stop stop-color="#26A69A"/>
<stop offset="1" stop-color="#004D40"/>
</linearGradient>
<linearGradient id="paint1_linear_86_3030" x1="14" y1="33" x2="32.5" y2="4.5" gradientUnits="userSpaceOnUse">
<stop stop-color="#004D40"/>
<stop offset="1" stop-color="#9E9E9E"/>
</linearGradient>
<linearGradient id="paint2_linear_86_3030" x1="14" y1="32.5" x2="32.5" y2="4" gradientUnits="userSpaceOnUse">
<stop stop-color="#004D40"/>
<stop offset="1" stop-color="#9E9E9E"/>
</linearGradient>
<clipPath id="clip0_86_3030">
<rect y="2.5" width="24" height="24" rx="4" fill="white"/>
</clipPath>
<clipPath id="clip1_86_3030">
<rect y="2" width="24" height="24" rx="4" fill="white"/>
</clipPath>
</defs>
</svg>
