<svg width="163" height="36" viewBox="0 0 163 36" fill="none" xmlns="http://www.w3.org/2000/svg">
<g clip-path="url(#clip0_139_800)">
<rect x="5" y="6" width="24" height="24" rx="4" fill="#004D40"/>
<circle cx="3" cy="2" r="14" fill="url(#paint0_linear_139_800)"/>
<circle cx="38.5" cy="43.5" r="35.5" fill="url(#paint1_linear_139_800)"/>
<path fill-rule="evenodd" clip-rule="evenodd" d="M15 9C15 8.44772 15.4477 8 16 8H18H24V11H18V14H24V17H18V19C18 19.5523 18.4477 20 19 20H24V23H17H16C15.4477 23 15 22.5523 15 22V21V16V15V10V9ZM10 13H12C12.5523 13 13 13.4477 13 14V24C13 24.5523 13.4477 25 14 25H19V28H12H11C10.4477 28 10 27.5523 10 27V26V13Z" fill="white"/>
</g>
<path d="M36.5518 28V12.0454H39.6035V25.4243H46.3418V28H36.5518ZM57.3647 28L57.2915 26.3765C57.0311 26.6532 56.7585 26.9095 56.4736 27.1455C56.1888 27.3734 55.8755 27.5728 55.5337 27.7437C55.1919 27.9146 54.8175 28.0448 54.4106 28.1343C54.0119 28.2319 53.5724 28.2808 53.0923 28.2808C52.4575 28.2808 51.9001 28.1872 51.4199 28C50.9398 27.8128 50.5369 27.5524 50.2114 27.2188C49.8859 26.8851 49.6377 26.4823 49.4668 26.0103C49.304 25.5382 49.2227 25.0174 49.2227 24.4478C49.2227 23.8618 49.3447 23.3206 49.5889 22.8242C49.8411 22.3278 50.2196 21.9006 50.7241 21.5425C51.2368 21.1844 51.8716 20.9036 52.6284 20.7002C53.3934 20.4967 54.2886 20.395 55.314 20.395H56.9375V19.6504C56.9375 19.333 56.8927 19.0482 56.8032 18.7959C56.7137 18.5355 56.5672 18.3158 56.3638 18.1367C56.1685 17.9577 55.9121 17.8193 55.5947 17.7217C55.2773 17.624 54.8867 17.5752 54.4229 17.5752C53.6904 17.5752 52.9661 17.6606 52.25 17.8315C51.542 17.9943 50.8543 18.2262 50.187 18.5273V16.147C50.7811 15.911 51.4647 15.7157 52.2378 15.561C53.019 15.4064 53.8288 15.3291 54.667 15.3291C55.5866 15.3291 56.376 15.4186 57.0352 15.5977C57.6943 15.7686 58.2355 16.029 58.6587 16.3789C59.09 16.7288 59.4074 17.1683 59.6108 17.6973C59.8143 18.2181 59.916 18.8285 59.916 19.5283V28H57.3647ZM56.9375 22.519H55.1187C54.6141 22.519 54.1868 22.5679 53.8369 22.6655C53.487 22.7632 53.2021 22.8975 52.9824 23.0684C52.7627 23.2393 52.5999 23.4386 52.4941 23.6665C52.3965 23.8862 52.3477 24.1222 52.3477 24.3745C52.3477 24.8791 52.5104 25.2656 52.8359 25.5342C53.1615 25.7946 53.605 25.9248 54.1665 25.9248C54.5815 25.9248 55.0129 25.7743 55.4604 25.4731C55.908 25.172 56.4004 24.7407 56.9375 24.1792V22.519ZM63.4683 28V25.9248L69.5352 18.1489H63.6147V15.5977H73.4658V17.6973L67.5332 25.3755H73.5635V28H63.4683ZM84.5376 26.645C84.1063 27.7192 83.6546 28.6592 83.1826 29.4648C82.7188 30.2786 82.2061 30.9541 81.6445 31.4912C81.083 32.0365 80.4564 32.4434 79.7646 32.7119C79.0811 32.9886 78.312 33.127 77.4575 33.127C77.2541 33.127 77.0303 33.1147 76.7861 33.0903C76.5501 33.0741 76.306 33.0456 76.0537 33.0049V30.478C76.1514 30.4943 76.2612 30.5106 76.3833 30.5269C76.5135 30.5513 76.6478 30.5675 76.7861 30.5757C76.9245 30.592 77.0628 30.6042 77.2012 30.6123C77.3477 30.6204 77.4819 30.6245 77.604 30.6245C77.9458 30.6245 78.2632 30.5594 78.5562 30.4292C78.8491 30.299 79.1177 30.1159 79.3618 29.8799C79.6141 29.652 79.842 29.3753 80.0454 29.0498C80.2489 28.7324 80.4279 28.3825 80.5825 28L75.6631 15.5977H78.9834L81.5591 22.6289L82.3281 24.8994L83.085 22.7266L85.6851 15.5977H88.8833L84.5376 26.645ZM101.627 20.8467C101.627 21.0501 101.619 21.3146 101.603 21.6401C101.595 21.9657 101.579 22.2708 101.554 22.5557H93.3999C93.3999 23.1009 93.4813 23.5811 93.644 23.9961C93.8149 24.4111 94.0509 24.7611 94.3521 25.0459C94.6613 25.3226 95.0275 25.5342 95.4507 25.6807C95.882 25.8271 96.3581 25.9004 96.8789 25.9004C97.4811 25.9004 98.124 25.8556 98.8076 25.7661C99.4993 25.6685 100.215 25.5138 100.956 25.3022V27.6704C100.639 27.7599 100.293 27.8413 99.9185 27.9146C99.5441 27.9878 99.1616 28.0529 98.771 28.1099C98.3804 28.1668 97.9857 28.2075 97.5869 28.2319C97.1882 28.2645 96.8016 28.2808 96.4272 28.2808C95.4832 28.2808 94.6369 28.1465 93.8882 27.8779C93.1395 27.6094 92.5047 27.2147 91.9839 26.6938C91.4631 26.1649 91.0643 25.5138 90.7876 24.7407C90.5109 23.9676 90.3726 23.0724 90.3726 22.0552C90.3726 21.0461 90.5109 20.1305 90.7876 19.3086C91.0643 18.4785 91.4549 17.7705 91.9595 17.1846C92.464 16.5905 93.0744 16.1348 93.7905 15.8174C94.5148 15.4919 95.3205 15.3291 96.2075 15.3291C97.0864 15.3291 97.8636 15.4674 98.5391 15.7441C99.2145 16.0127 99.7801 16.3911 100.236 16.8794C100.692 17.3677 101.037 17.9495 101.273 18.625C101.509 19.3005 101.627 20.041 101.627 20.8467ZM98.6001 20.4194C98.6082 19.9312 98.5472 19.508 98.417 19.1499C98.2868 18.7837 98.1077 18.4826 97.8799 18.2466C97.6602 18.0106 97.3997 17.8356 97.0986 17.7217C96.8057 17.6077 96.4883 17.5508 96.1465 17.5508C95.3978 17.5508 94.7834 17.8031 94.3032 18.3076C93.8231 18.804 93.5382 19.508 93.4487 20.4194H98.6001ZM112.345 28L112.272 26.3765C112.012 26.6532 111.739 26.9095 111.454 27.1455C111.169 27.3734 110.856 27.5728 110.514 27.7437C110.172 27.9146 109.798 28.0448 109.391 28.1343C108.992 28.2319 108.553 28.2808 108.073 28.2808C107.438 28.2808 106.881 28.1872 106.4 28C105.92 27.8128 105.517 27.5524 105.192 27.2188C104.866 26.8851 104.618 26.4823 104.447 26.0103C104.285 25.5382 104.203 25.0174 104.203 24.4478C104.203 23.8618 104.325 23.3206 104.569 22.8242C104.822 22.3278 105.2 21.9006 105.705 21.5425C106.217 21.1844 106.852 20.9036 107.609 20.7002C108.374 20.4967 109.269 20.395 110.294 20.395H111.918V19.6504C111.918 19.333 111.873 19.0482 111.784 18.7959C111.694 18.5355 111.548 18.3158 111.344 18.1367C111.149 17.9577 110.893 17.8193 110.575 17.7217C110.258 17.624 109.867 17.5752 109.403 17.5752C108.671 17.5752 107.947 17.6606 107.23 17.8315C106.522 17.9943 105.835 18.2262 105.167 18.5273V16.147C105.762 15.911 106.445 15.7157 107.218 15.561C108 15.4064 108.809 15.3291 109.647 15.3291C110.567 15.3291 111.356 15.4186 112.016 15.5977C112.675 15.7686 113.216 16.029 113.639 16.3789C114.07 16.7288 114.388 17.1683 114.591 17.6973C114.795 18.2181 114.896 18.8285 114.896 19.5283V28H112.345ZM111.918 22.519H110.099C109.595 22.519 109.167 22.5679 108.817 22.6655C108.467 22.7632 108.183 22.8975 107.963 23.0684C107.743 23.2393 107.58 23.4386 107.475 23.6665C107.377 23.8862 107.328 24.1222 107.328 24.3745C107.328 24.8791 107.491 25.2656 107.816 25.5342C108.142 25.7946 108.585 25.9248 109.147 25.9248C109.562 25.9248 109.993 25.7743 110.441 25.4731C110.889 25.172 111.381 24.7407 111.918 24.1792V22.519ZM126.298 20.4194C126.314 19.9556 126.29 19.5609 126.225 19.2354C126.168 18.9098 126.07 18.6413 125.932 18.4297C125.801 18.2181 125.639 18.0635 125.443 17.9658C125.248 17.8682 125.024 17.8193 124.772 17.8193C124.333 17.8193 123.877 18.0024 123.405 18.3687C122.941 18.7267 122.428 19.3208 121.867 20.1509V28H118.815V15.5977H121.513L121.623 17.4043C121.826 17.0869 122.054 16.8021 122.306 16.5498C122.567 16.2975 122.851 16.0819 123.161 15.9028C123.478 15.7157 123.828 15.5732 124.21 15.4756C124.593 15.3779 125.012 15.3291 125.468 15.3291C126.094 15.3291 126.648 15.439 127.128 15.6587C127.616 15.8703 128.023 16.1877 128.349 16.6108C128.682 17.034 128.926 17.5671 129.081 18.21C129.244 18.8447 129.313 19.5812 129.289 20.4194H126.298ZM142.289 27.8779C141.752 28 141.211 28.0977 140.666 28.1709C140.12 28.2441 139.604 28.2808 139.115 28.2808C138.301 28.2808 137.597 28.1953 137.003 28.0244C136.417 27.8535 135.929 27.5931 135.539 27.2432C135.156 26.8932 134.871 26.4497 134.684 25.9126C134.505 25.3674 134.416 24.7204 134.416 23.9717V17.917H131.083V15.5977H134.416V12.4238L137.467 11.6304V15.5977H142.289V17.917H137.467V23.752C137.467 24.46 137.63 24.9971 137.956 25.3633C138.281 25.7214 138.826 25.9004 139.591 25.9004C140.08 25.9004 140.556 25.8597 141.02 25.7783C141.483 25.6969 141.907 25.6034 142.289 25.4976V27.8779ZM153.202 28V19.9189C153.202 18.5599 152.698 17.8804 151.688 17.8804C151.184 17.8804 150.7 18.0838 150.236 18.4907C149.78 18.8976 149.296 19.451 148.783 20.1509V28H145.805V10.7515H148.783V14.9995L148.637 17.2456C148.889 16.9445 149.145 16.6759 149.406 16.4399C149.666 16.1958 149.947 15.9924 150.248 15.8296C150.549 15.6668 150.875 15.5448 151.225 15.4634C151.575 15.3739 151.961 15.3291 152.384 15.3291C153.019 15.3291 153.572 15.4349 154.044 15.6465C154.516 15.8499 154.911 16.1429 155.229 16.5254C155.546 16.8997 155.782 17.3555 155.937 17.8926C156.099 18.4215 156.181 19.0156 156.181 19.6748V28H153.202Z" fill="white"/>
<defs>
<linearGradient id="paint0_linear_139_800" x1="15" y1="-2.5" x2="3" y2="14" gradientUnits="userSpaceOnUse">
<stop stop-color="#26A69A"/>
<stop offset="1" stop-color="#004D40"/>
</linearGradient>
<linearGradient id="paint1_linear_139_800" x1="19" y1="36.5" x2="37.5" y2="8" gradientUnits="userSpaceOnUse">
<stop stop-color="#004D40"/>
<stop offset="1" stop-color="#9E9E9E"/>
</linearGradient>
<clipPath id="clip0_139_800">
<rect x="5" y="6" width="24" height="24" rx="4" fill="white"/>
</clipPath>
</defs>
</svg>
